Muli-Semi-Bold.ufo
<glyph name="asterisk" format="1">
  <advance width="1076"/>
  <unicode hex="002A"/>
  <outline>
    <contour>
      <point x="690" y="670" type="line"/>
      <point x="857" y="781" type="line"/>
      <point x="647" y="1018" type="line"/>
      <point x="921" y="1118" type="line"/>
      <point x="843" y="1283" type="line"/>
      <point x="601" y="1160" type="line"/>
      <point x="627" y="1456" type="line"/>
      <point x="418" y="1456" type="line"/>
      <point x="448" y="1160" type="line"/>
      <point x="201" y="1283" type="line"/>
      <point x="127" y="1118" type="line"/>
      <point x="402" y="1018" type="line"/>
      <point x="193" y="784" type="line"/>
      <point x="360" y="671" type="line"/>
      <point x="525" y="924" type="line"/>
    </contour>
  </outline>
</glyph>
<glyph name="one" format="1">
  <advance width="1256"/>
  <unicode hex="0031"/>
  <outline>
    <contour>
      <point x="289" y="0" type="line"/>
      <point x="1050" y="0" type="line"/>
      <point x="1050" y="180" type="line"/>
      <point x="788" y="180" type="line"/>
      <point x="788" y="1456" type="line"/>
      <point x="591" y="1456" type="line"/>
      <point x="502" y="1405"/>
      <point x="370" y="1342"/>
      <point x="265" y="1306" type="curve"/>
      <point x="265" y="1098" type="line"/>
      <point x="375" y="1136"/>
      <point x="484" y="1180"/>
      <point x="558" y="1218" type="curve"/>
      <point x="558" y="182" type="line"/>
      <point x="289" y="182" type="line"/>
    </contour>
  </outline>
</glyph>
<glyph name="two" format="1">
  <advance width="1256"/>
  <unicode hex="0032"/>
  <outline>
    <contour>
      <point x="199" y="0" type="line"/>
      <point x="1041" y="0" type="line"/>
      <point x="1041" y="190" type="line"/>
      <point x="480" y="190" type="line"/>
      <point x="772" y="493" type="line" smooth="yes"/>
      <point x="937" y="665"/>
      <point x="1061" y="824"/>
      <point x="1048" y="1058" type="curve" smooth="yes"/>
      <point x="1033" y="1326"/>
      <point x="852" y="1481"/>
      <point x="602" y="1481" type="curve" smooth="yes"/>
      <point x="328" y="1481"/>
      <point x="144" y="1339"/>
      <point x="144" y="1339" type="curve"/>
      <point x="219" y="1158" type="line"/>
      <point x="220" y="1158"/>
      <point x="397" y="1286"/>
      <point x="584" y="1286" type="curve" smooth="yes"/>
      <point x="713" y="1286"/>
      <point x="809" y="1214"/>
      <point x="824" y="1061" type="curve" smooth="yes"/>
      <point x="841" y="899"/>
      <point x="783" y="797"/>
      <point x="626" y="629" type="curve" smooth="yes"/>
      <point x="199" y="173" type="line"/>
    </contour>
  </outline>
</glyph>
<glyph name="nine" format="1">
  <advance width="1256"/>
  <unicode hex="0039"/>
  <outline>
    <contour>
      <point x="562" y="-24" type="curve" smooth="yes"/>
      <point x="904" y="-24"/>
      <point x="1113" y="275"/>
      <point x="1113" y="771" type="curve" smooth="yes"/>
      <point x="1113" y="1238"/>
      <point x="936" y="1483"/>
      <point x="613" y="1483" type="curve" smooth="yes"/>
      <point x="310" y="1483"/>
      <point x="123" y="1271"/>
      <point x="123" y="995" type="curve" smooth="yes"/>
      <point x="123" y="718"/>
      <point x="298" y="525"/>
      <point x="580" y="525" type="curve" smooth="yes"/>
      <point x="702" y="525"/>
      <point x="817" y="564"/>
      <point x="884" y="675" type="curve"/>
      <point x="884" y="637" type="line" smooth="yes"/>
      <point x="884" y="315"/>
      <point x="734" y="174"/>
      <point x="545" y="174" type="curve" smooth="yes"/>
      <point x="456" y="174"/>
      <point x="364" y="203"/>
      <point x="273" y="259" type="curve"/>
      <point x="193" y="73" type="line"/>
      <point x="329" y="5"/>
      <point x="451" y="-24"/>
    </contour>
    <contour>
      <point x="605" y="716" type="curve" smooth="yes"/>
      <point x="432" y="716"/>
      <point x="355" y="840"/>
      <point x="355" y="1000" type="curve" smooth="yes"/>
      <point x="355" y="1168"/>
      <point x="455" y="1286"/>
      <point x="618" y="1286" type="curve" smooth="yes"/>
      <point x="786" y="1286"/>
      <point x="877" y="1154"/>
      <point x="877" y="1008" type="curve" smooth="yes"/>
      <point x="877" y="817"/>
      <point x="763" y="716"/>
    </contour>
  </outline>
</glyph>
<glyph name="question" format="1">
  <advance width="1034"/>
  <unicode hex="003F"/>
  <outline>
    <contour>
      <point x="331" y="399" type="line"/>
      <point x="512" y="399" type="line"/>
      <point x="512" y="476" type="line" smooth="yes"/>
      <point x="512" y="739"/>
      <point x="924" y="825"/>
      <point x="924" y="1126" type="curve" smooth="yes"/>
      <point x="924" y="1367"/>
      <point x="728" y="1483"/>
      <point x="493" y="1483" type="curve" smooth="yes"/>
      <point x="331" y="1483"/>
      <point x="211" y="1431"/>
      <point x="174" y="1413" type="curve"/>
      <point x="174" y="1218" type="line"/>
      <point x="222" y="1242"/>
      <point x="351" y="1288"/>
      <point x="470" y="1288" type="curve" smooth="yes"/>
      <point x="593" y="1288"/>
      <point x="691" y="1241"/>
      <point x="691" y="1119" type="curve" smooth="yes"/>
      <point x="691" y="910"/>
      <point x="331" y="794"/>
      <point x="331" y="538" type="curve" smooth="yes"/>
    </contour>
    <contour>
      <point x="305" y="0" type="line"/>
      <point x="550" y="0" type="line"/>
      <point x="550" y="251" type="line"/>
      <point x="305" y="251" type="line"/>
    </contour>
  </outline>
</glyph>
<glyph name="J" format="1">
  <advance width="903"/>
  <unicode hex="004A"/>
  <outline>
    <contour>
      <point x="606" y="1456" type="move" name="top"/>
    </contour>
    <contour>
      <point x="329" y="-331" type="curve" smooth="yes"/>
      <point x="573" y="-331"/>
      <point x="712" y="-176"/>
      <point x="712" y="120" type="curve" smooth="yes"/>
      <point x="712" y="1456" type="line"/>
      <point x="482" y="1456" type="line"/>
      <point x="482" y="114" type="line" smooth="yes"/>
      <point x="482" y="-43"/>
      <point x="439" y="-136"/>
      <point x="291" y="-136" type="curve" smooth="yes"/>
      <point x="226" y="-136"/>
      <point x="152" y="-120"/>
      <point x="74" y="-96" type="curve"/>
      <point x="36" y="-273" type="line"/>
      <point x="133" y="-308"/>
      <point x="236" y="-331"/>
    </contour>
  </outline>
</glyph>
<glyph name="L" format="1">
  <advance width="1145"/>
  <unicode hex="004C"/>
  <outline>
    <contour>
      <point x="348" y="1456" type="move" name="top"/>
    </contour>
    <contour>
      <point x="320" y="1026" type="move" name="caron.alt"/>
    </contour>
    <contour>
      <point x="660" y="0" type="move" name="bot"/>
    </contour>
    <contour>
      <point x="353" y="753" type="move" name="mid"/>
    </contour>
    <contour>
      <point x="194" y="0" type="line"/>
      <point x="1098" y="0" type="line"/>
      <point x="1098" y="196" type="line"/>
      <point x="424" y="196" type="line"/>
      <point x="424" y="1456" type="line"/>
      <point x="194" y="1456" type="line"/>
    </contour>
  </outline>
</glyph>
<glyph name="O" format="1">
  <advance width="1653"/>
  <unicode hex="004F"/>
  <outline>
    <contour>
      <point x="833" y="1456" type="move" name="top"/>
    </contour>
    <contour>
      <point x="867" y="0" type="move" name="ogonek"/>
    </contour>
    <contour>
      <point x="826" y="174" type="curve" smooth="yes"/>
      <point x="510" y="174"/>
      <point x="354" y="387"/>
      <point x="354" y="733" type="curve" smooth="yes"/>
      <point x="354" y="1064"/>
      <point x="517" y="1286"/>
      <point x="830" y="1286" type="curve" smooth="yes"/>
      <point x="1144" y="1286"/>
      <point x="1297" y="1064"/>
      <point x="1297" y="733" type="curve" smooth="yes"/>
      <point x="1297" y="388"/>
      <point x="1143" y="174"/>
    </contour>
    <contour>
      <point x="830" y="-23" type="curve" smooth="yes"/>
      <point x="1282" y="-23"/>
      <point x="1547" y="275"/>
      <point x="1547" y="733" type="curve" smooth="yes"/>
      <point x="1547" y="1178"/>
      <point x="1273" y="1483"/>
      <point x="833" y="1483" type="curve" smooth="yes"/>
      <point x="376" y="1483"/>
      <point x="106" y="1177"/>
      <point x="106" y="733" type="curve" smooth="yes"/>
      <point x="106" y="273"/>
      <point x="377" y="-23"/>
    </contour>
  </outline>
</glyph>
<glyph name="R" format="1">
  <advance width="1372"/>
  <unicode hex="0052"/>
  <outline>
    <contour>
      <point x="667" y="1456" type="move" name="top"/>
    </contour>
    <contour>
      <point x="733" y="0" type="move" name="bot"/>
    </contour>
    <contour>
      <point x="194" y="0" type="line"/>
      <point x="424" y="0" type="line"/>
      <point x="424" y="630" type="line"/>
      <point x="641" y="630" type="line" smooth="yes"/>
      <point x="786" y="630"/>
      <point x="831" y="586"/>
      <point x="889" y="433" type="curve" smooth="yes"/>
      <point x="1054" y="0" type="line"/>
      <point x="1303" y="0" type="line"/>
      <point x="1118" y="459" type="line" smooth="yes"/>
      <point x="1066" y="587"/>
      <point x="1004" y="674"/>
      <point x="911" y="715" type="curve"/>
      <point x="1112" y="762"/>
      <point x="1196" y="900"/>
      <point x="1196" y="1062" type="curve" smooth="yes"/>
      <point x="1196" y="1389"/>
      <point x="972" y="1456"/>
      <point x="689" y="1456" type="curve" smooth="yes"/>
      <point x="194" y="1456" type="line"/>
    </contour>
    <contour>
      <point x="421" y="825" type="line"/>
      <point x="421" y="1260" type="line"/>
      <point x="691" y="1260" type="line" smooth="yes"/>
      <point x="868" y="1260"/>
      <point x="952" y="1220"/>
      <point x="952" y="1048" type="curve" smooth="yes"/>
      <point x="952" y="872"/>
      <point x="825" y="825"/>
      <point x="668" y="825" type="curve" smooth="yes"/>
    </contour>
  </outline>
</glyph>
<glyph name="V" format="1">
  <advance width="1363"/>
  <unicode hex="0056"/>
  <outline>
    <contour>
      <point x="567" y="0" type="line"/>
      <point x="799" y="0" type="line"/>
      <point x="1348" y="1456" type="line"/>
      <point x="1105" y="1456" type="line"/>
      <point x="773" y="528" type="line"/>
      <point x="687" y="293" type="line"/>
      <point x="600" y="531" type="line"/>
      <point x="274" y="1456" type="line"/>
      <point x="15" y="1456" type="line"/>
    </contour>
  </outline>
</glyph>
<glyph name="W" format="1">
  <advance width="2052"/>
  <unicode hex="0057"/>
  <outline>
    <contour>
      <point x="1033" y="1456" type="move" name="top"/>
    </contour>
    <contour>
      <point x="424" y="0" type="line"/>
      <point x="687" y="0" type="line"/>
      <point x="1027" y="1141" type="line"/>
      <point x="1371" y="0" type="line"/>
      <point x="1638" y="0" type="line"/>
      <point x="2036" y="1456" type="line"/>
      <point x="1798" y="1456" type="line"/>
      <point x="1575" y="561" type="line"/>
      <point x="1507" y="269" type="line"/>
      <point x="1423" y="562" type="line"/>
      <point x="1145" y="1456" type="line"/>
      <point x="921" y="1456" type="line"/>
      <point x="648" y="569" type="line"/>
      <point x="565" y="272" type="line"/>
      <point x="492" y="572" type="line"/>
      <point x="262" y="1456" type="line"/>
      <point x="16" y="1456" type="line"/>
    </contour>
  </outline>
</glyph>
<glyph name="X" format="1">
  <advance width="1345"/>
  <unicode hex="0058"/>
  <outline>
    <contour>
      <point x="18" y="0" type="line"/>
      <point x="290" y="0" type="line"/>
      <point x="672" y="554" type="line"/>
      <point x="1047" y="0" type="line"/>
      <point x="1329" y="0" type="line"/>
      <point x="815" y="747" type="line"/>
      <point x="1315" y="1456" type="line"/>
      <point x="1050" y="1456" type="line"/>
      <point x="685" y="932" type="line"/>
      <point x="331" y="1456" type="line"/>
      <point x="48" y="1456" type="line"/>
      <point x="541" y="738" type="line"/>
    </contour>
  </outline>
</glyph>
<glyph name="Y" format="1">
  <advance width="1258"/>
  <unicode hex="0059"/>
  <outline>
    <contour>
      <point x="653" y="1456" type="move" name="top"/>
    </contour>
    <contour>
      <point x="509" y="0" type="line"/>
      <point x="739" y="0" type="line"/>
      <point x="739" y="570" type="line"/>
      <point x="1264" y="1456" type="line"/>
      <point x="1000" y="1456" type="line"/>
      <point x="628" y="771" type="line"/>
      <point x="257" y="1456" type="line"/>
      <point x="-2" y="1456" type="line"/>
      <point x="509" y="567" type="line"/>
    </contour>
  </outline>
</glyph>
<glyph name="g" format="1">
  <advance width="1253"/>
  <unicode hex="0067"/>
  <outline>
    <contour>
      <point x="579" y="1026" type="move" name="top"/>
    </contour>
    <contour>
      <point x="576" y="-414" type="curve" smooth="yes"/>
      <point x="996" y="-414"/>
      <point x="1102" y="-129"/>
      <point x="1102" y="147" type="curve" smooth="yes"/>
      <point x="1102" y="708" type="line" smooth="yes"/>
      <point x="1102" y="870"/>
      <point x="1118" y="1026"/>
      <point x="1118" y="1026" type="curve" smooth="yes"/>
      <point x="883" y="1026" type="line"/>
      <point x="883" y="900" type="line"/>
      <point x="832" y="980"/>
      <point x="736" y="1052"/>
      <point x="586" y="1052" type="curve" smooth="yes"/>
      <point x="263" y="1052"/>
      <point x="104" y="811"/>
      <point x="104" y="515" type="curve" smooth="yes"/>
      <point x="104" y="203"/>
      <point x="309" y="12"/>
      <point x="597" y="12" type="curve" smooth="yes"/>
      <point x="753" y="12"/>
      <point x="837" y="90"/>
      <point x="882" y="156" type="curve"/>
      <point x="882" y="59" type="line" smooth="yes"/>
      <point x="882" y="-138"/>
      <point x="761" y="-232"/>
      <point x="564" y="-232" type="curve" smooth="yes"/>
      <point x="457" y="-232"/>
      <point x="348" y="-209"/>
      <point x="225" y="-138" type="curve"/>
      <point x="188" y="-332" type="line"/>
      <point x="313" y="-388"/>
      <point x="439" y="-414"/>
    </contour>
    <contour>
      <point x="612" y="183" type="curve" smooth="yes"/>
      <point x="428" y="183"/>
      <point x="338" y="310"/>
      <point x="338" y="517" type="curve" smooth="yes"/>
      <point x="338" y="714"/>
      <point x="434" y="871"/>
      <point x="621" y="871" type="curve" smooth="yes"/>
      <point x="800" y="871"/>
      <point x="891" y="727"/>
      <point x="891" y="528" type="curve" smooth="yes"/>
      <point x="891" y="344"/>
      <point x="817" y="183"/>
    </contour>
  </outline>
</glyph>
<glyph name="h" format="1">
  <advance width="1227"/>
  <unicode hex="0068"/>
  <outline>
    <contour>
      <point x="740" y="1026" type="move" name="top"/>
    </contour>
    <contour>
      <point x="291" y="1242" type="move" name="mid"/>
    </contour>
    <contour>
      <point x="152" y="0" type="line"/>
      <point x="376" y="0" type="line"/>
      <point x="376" y="620" type="line" smooth="yes"/>
      <point x="376" y="753"/>
      <point x="519" y="871"/>
      <point x="665" y="871" type="curve" smooth="yes"/>
      <point x="797" y="871"/>
      <point x="861" y="792"/>
      <point x="861" y="593" type="curve" smooth="yes"/>
      <point x="861" y="0" type="line"/>
      <point x="1085" y="0" type="line"/>
      <point x="1085" y="589" type="line" smooth="yes"/>
      <point x="1085" y="796"/>
      <point x="1011" y="1052"/>
      <point x="699" y="1052" type="curve" smooth="yes"/>
      <point x="580" y="1052"/>
      <point x="433" y="987"/>
      <point x="376" y="883" type="curve"/>
      <point x="376" y="1469" type="line"/>
      <point x="152" y="1469" type="line"/>
    </contour>
  </outline>
</glyph>
<glyph name="i" format="1">
  <advance width="526"/>
  <unicode hex="0069"/>
  <outline>
    <contour>
      <point x="157" y="0" type="line"/>
      <point x="376" y="0" type="line"/>
      <point x="376" y="1026" type="line"/>
      <point x="157" y="1026" type="line"/>
    </contour>
    <contour>
      <point x="158" y="1256" type="line"/>
      <point x="376" y="1256" type="line"/>
      <point x="376" y="1456" type="line"/>
      <point x="158" y="1456" type="line"/>
    </contour>
  </outline>
</glyph>
<glyph name="p" format="1">
  <advance width="1267"/>
  <unicode hex="0070"/>
  <outline>
    <contour>
      <point x="680" y="1026" type="move" name="top"/>
    </contour>
    <contour>
      <point x="166" y="-405" type="line"/>
      <point x="388" y="-405" type="line"/>
      <point x="388" y="149" type="line"/>
      <point x="408" y="81"/>
      <point x="530" y="-23"/>
      <point x="703" y="-23" type="curve" smooth="yes"/>
      <point x="992" y="-23"/>
      <point x="1164" y="232"/>
      <point x="1164" y="525" type="curve" smooth="yes"/>
      <point x="1164" y="816"/>
      <point x="992" y="1052"/>
      <point x="711" y="1052" type="curve" smooth="yes"/>
      <point x="538" y="1052"/>
      <point x="411" y="948"/>
      <point x="388" y="867" type="curve"/>
      <point x="388" y="1026" type="line"/>
      <point x="151" y="1026" type="line"/>
      <point x="157" y="920"/>
      <point x="166" y="797"/>
      <point x="166" y="703" type="curve" smooth="yes"/>
    </contour>
    <contour>
      <point x="656" y="159" type="curve" smooth="yes"/>
      <point x="465" y="159"/>
      <point x="378" y="316"/>
      <point x="378" y="511" type="curve" smooth="yes"/>
      <point x="378" y="715"/>
      <point x="470" y="871"/>
      <point x="657" y="871" type="curve" smooth="yes"/>
      <point x="841" y="871"/>
      <point x="930" y="717"/>
      <point x="930" y="516" type="curve" smooth="yes"/>
      <point x="930" y="318"/>
      <point x="846" y="159"/>
    </contour>
  </outline>
</glyph>
<glyph name="r" format="1">
  <advance width="798"/>
  <unicode hex="0072"/>
  <outline>
    <contour>
      <point x="492" y="1026" type="move" name="top"/>
    </contour>
    <contour>
      <point x="316" y="0" type="move" name="bot"/>
    </contour>
    <contour>
      <point x="168" y="0" type="line"/>
      <point x="393" y="0" type="line"/>
      <point x="393" y="577" type="line" smooth="yes"/>
      <point x="393" y="764"/>
      <point x="496" y="860"/>
      <point x="636" y="860" type="curve" smooth="yes"/>
      <point x="676" y="860"/>
      <point x="718" y="853"/>
      <point x="756" y="840" type="curve"/>
      <point x="756" y="1037" type="line"/>
      <point x="720" y="1047"/>
      <point x="685" y="1052"/>
      <point x="652" y="1052" type="curve" smooth="yes"/>
      <point x="542" y="1052"/>
      <point x="459" y="987"/>
      <point x="390" y="881" type="curve"/>
      <point x="390" y="1026" type="line"/>
      <point x="152" y="1026" type="line" smooth="yes"/>
      <point x="152" y="1026"/>
      <point x="168" y="864"/>
      <point x="168" y="770" type="curve" smooth="yes"/>
    </contour>
  </outline>
</glyph>
<glyph name="s" format="1">
  <advance width="988"/>
  <unicode hex="0073"/>
  <outline>
    <contour>
      <point x="498" y="1026" type="move" name="top"/>
    </contour>
    <contour>
      <point x="530" y="0" type="move" name="bot"/>
    </contour>
    <contour>
      <point x="530" y="-23" type="curve" smooth="yes"/>
      <point x="704" y="-23"/>
      <point x="899" y="55"/>
      <point x="899" y="288" type="curve" smooth="yes"/>
      <point x="899" y="481"/>
      <point x="783" y="539"/>
      <point x="615" y="598" type="curve" smooth="yes"/>
      <point x="603" y="602"/>
      <point x="523" y="630"/>
      <point x="514" y="633" type="curve" smooth="yes"/>
      <point x="375" y="682"/>
      <point x="344" y="701"/>
      <point x="344" y="767" type="curve"/>
      <point x="344" y="838"/>
      <point x="407" y="873"/>
      <point x="521" y="873" type="curve" smooth="yes"/>
      <point x="621" y="873"/>
      <point x="738" y="830"/>
      <point x="797" y="799" type="curve"/>
      <point x="857" y="955" type="line"/>
      <point x="773" y="1010"/>
      <point x="643" y="1050"/>
      <point x="499" y="1050" type="curve" smooth="yes"/>
      <point x="309" y="1050"/>
      <point x="125" y="969"/>
      <point x="125" y="759" type="curve" smooth="yes"/>
      <point x="125" y="578"/>
      <point x="242" y="520"/>
      <point x="400" y="466" type="curve" smooth="yes"/>
      <point x="496" y="433" type="line" smooth="yes"/>
      <point x="656" y="379"/>
      <point x="690" y="354"/>
      <point x="690" y="287" type="curve" smooth="yes"/>
      <point x="690" y="188"/>
      <point x="614" y="156"/>
      <point x="512" y="156" type="curve" smooth="yes"/>
      <point x="386" y="156"/>
      <point x="251" y="211"/>
      <point x="176" y="268" type="curve"/>
      <point x="118" y="104" type="line"/>
      <point x="183" y="53"/>
      <point x="330" y="-23"/>
    </contour>
  </outline>
</glyph>
<glyph name="t" format="1">
  <advance width="820"/>
  <unicode hex="0074"/>
  <outline>
    <contour>
      <point x="350" y="1320" type="move" name="top"/>
    </contour>
    <contour>
      <point x="257" y="1316" type="move" name="caron.alt"/>
    </contour>
    <contour>
      <point x="510" y="0" type="move" name="bot"/>
    </contour>
    <contour>
      <point x="361" y="603" type="move" name="mid"/>
    </contour>
    <contour>
      <point x="734" y="1" type="line"/>
      <point x="734" y="173" type="line"/>
      <point x="504" y="173"/>
      <point x="450" y="192"/>
      <point x="450" y="355" type="curve" smooth="yes"/>
      <point x="450" y="876" type="line"/>
      <point x="730" y="876" type="line"/>
      <point x="730" y="1026" type="line"/>
      <point x="450" y="1026" type="line"/>
      <point x="450" y="1341" type="line"/>
      <point x="233" y="1276" type="line"/>
      <point x="233" y="1026" type="line"/>
      <point x="23" y="1026" type="line"/>
      <point x="23" y="876" type="line"/>
      <point x="227" y="876" type="line"/>
      <point x="227" y="368" type="line" smooth="yes"/>
      <point x="227" y="58"/>
      <point x="364" y="1"/>
      <point x="638" y="1" type="curve" smooth="yes"/>
    </contour>
  </outline>
</glyph>
<glyph name="u" format="1">
  <advance width="1206"/>
  <unicode hex="0075"/>
  <outline>
    <contour>
      <point x="601" y="1026" type="move" name="top"/>
    </contour>
    <contour>
      <point x="956" y="0" type="move" name="ogonek"/>
    </contour>
    <contour>
      <point x="538" y="-23" type="curve" smooth="yes"/>
      <point x="712" y="-23"/>
      <point x="797" y="91"/>
      <point x="825" y="156" type="curve"/>
      <point x="829" y="0" type="line"/>
      <point x="1059" y="0" type="line"/>
      <point x="1058" y="14"/>
      <point x="1049" y="204"/>
      <point x="1049" y="268" type="curve" smooth="yes"/>
      <point x="1049" y="1026" type="line"/>
      <point x="825" y="1026" type="line"/>
      <point x="825" y="413" type="line" smooth="yes"/>
      <point x="825" y="244"/>
      <point x="740" y="159"/>
      <point x="581" y="159" type="curve" smooth="yes"/>
      <point x="446" y="159"/>
      <point x="364" y="230"/>
      <point x="364" y="384" type="curve" smooth="yes"/>
      <point x="364" y="1026" type="line"/>
      <point x="142" y="1026" type="line"/>
      <point x="142" y="382" type="line" smooth="yes"/>
      <point x="142" y="146"/>
      <point x="272" y="-23"/>
    </contour>
  </outline>
</glyph>
<glyph name="y" format="1">
  <advance width="1098"/>
  <unicode hex="0079"/>
  <outline>
    <contour>
      <point x="575" y="1026" type="move" name="top"/>
    </contour>
    <contour>
      <point x="236" y="-441" type="line"/>
      <point x="413" y="-389"/>
      <point x="573" y="-266"/>
      <point x="654" y="-56" type="curve" smooth="yes"/>
      <point x="1070" y="1026" type="line"/>
      <point x="843" y="1026" type="line"/>
      <point x="571" y="258" type="line"/>
      <point x="266" y="1026" type="line"/>
      <point x="34" y="1026" type="line"/>
      <point x="462" y="19" type="line"/>
      <point x="448" y="-31" type="line" smooth="yes"/>
      <point x="416" y="-136"/>
      <point x="330" y="-219"/>
      <point x="142" y="-289" type="curve"/>
    </contour>
  </outline>
</glyph>
<glyph name="z" format="1">
  <advance width="987"/>
  <unicode hex="007A"/>
  <outline>
    <contour>
      <point x="534" y="1026" type="move" name="top"/>
    </contour>
    <contour>
      <point x="103" y="0" type="line"/>
      <point x="915" y="0" type="line"/>
      <point x="915" y="179" type="line"/>
      <point x="391" y="179" type="line"/>
      <point x="891" y="909" type="line"/>
      <point x="891" y="1026" type="line"/>
      <point x="122" y="1026" type="line"/>
      <point x="122" y="846" type="line"/>
      <point x="601" y="846" type="line"/>
      <point x="103" y="119" type="line"/>
    </contour>
  </outline>
</glyph>
<glyph name="sterling" format="1">
  <advance width="1235"/>
  <unicode hex="00A3"/>
  <outline>
    <contour>
      <point x="152" y="0" type="line"/>
      <point x="1108" y="0" type="line"/>
      <point x="1108" y="186" type="line"/>
      <point x="451" y="186" type="line"/>
      <point x="511" y="262"/>
      <point x="562" y="408"/>
      <point x="562" y="606" type="curve" smooth="yes"/>
      <point x="562" y="673" type="line"/>
      <point x="909" y="673" type="line"/>
      <point x="909" y="834" type="line"/>
      <point x="561" y="834" type="line"/>
      <point x="561" y="961" type="line" smooth="yes"/>
      <point x="561" y="1196"/>
      <point x="639" y="1297"/>
      <point x="819" y="1298" type="curve" smooth="yes"/>
      <point x="915" y="1299"/>
      <point x="986" y="1270"/>
      <point x="1055" y="1237" type="curve"/>
      <point x="1112" y="1409" type="line"/>
      <point x="1032" y="1457"/>
      <point x="937" y="1482"/>
      <point x="804" y="1482" type="curve" smooth="yes"/>
      <point x="419" y="1482"/>
      <point x="334" y="1225"/>
      <point x="334" y="910" type="curve" smooth="yes"/>
      <point x="334" y="834" type="line"/>
      <point x="150" y="834" type="line"/>
      <point x="150" y="673" type="line"/>
      <point x="337" y="673" type="line"/>
      <point x="337" y="610" type="line" smooth="yes"/>
      <point x="337" y="346"/>
      <point x="240" y="246"/>
      <point x="152" y="172" type="curve"/>
    </contour>
  </outline>
</glyph>
<glyph name="ordfeminine" format="1">
  <advance width="838"/>
  <unicode hex="00AA"/>
  <outline>
    <contour>
      <point x="342" y="737" type="curve" smooth="yes"/>
      <point x="463" y="737"/>
      <point x="535" y="806"/>
      <point x="559" y="864" type="curve"/>
      <point x="572" y="766" type="line"/>
      <point x="737" y="766" type="line"/>
      <point x="734" y="804"/>
      <point x="730" y="828"/>
      <point x="729" y="912" type="curve"/>
      <point x="728" y="949"/>
      <point x="728" y="1118"/>
      <point x="728" y="1202" type="curve" smooth="yes"/>
      <point x="728" y="1410"/>
      <point x="590" y="1480"/>
      <point x="432" y="1480" type="curve" smooth="yes"/>
      <point x="255" y="1480"/>
      <point x="134" y="1411"/>
      <point x="134" y="1411" type="curve"/>
      <point x="186" y="1286" type="line"/>
      <point x="186" y="1286"/>
      <point x="306" y="1339"/>
      <point x="415" y="1339" type="curve" smooth="yes"/>
      <point x="497" y="1339"/>
      <point x="549" y="1304"/>
      <point x="549" y="1204" type="curve" smooth="yes"/>
      <point x="549" y="1164" type="line"/>
      <point x="373" y="1164" type="line" smooth="yes"/>
      <point x="190" y="1164"/>
      <point x="101" y="1085"/>
      <point x="101" y="950" type="curve" smooth="yes"/>
      <point x="101" y="812"/>
      <point x="213" y="737"/>
    </contour>
    <contour>
      <point x="357" y="858" type="curve" smooth="yes"/>
      <point x="304" y="858"/>
      <point x="257" y="892"/>
      <point x="257" y="952" type="curve" smooth="yes"/>
      <point x="257" y="1059"/>
      <point x="332" y="1063"/>
      <point x="548" y="1063" type="curve"/>
      <point x="548" y="1045" type="line" smooth="yes"/>
      <point x="548" y="919"/>
      <point x="446" y="858"/>
    </contour>
  </outline>
</glyph>
<glyph name="plusminus" format="1">
  <advance width="1256"/>
  <unicode hex="00B1"/>
  <outline>
    <contour>
      <point x="521" y="277" type="line"/>
      <point x="736" y="277" type="line"/>
      <point x="736" y="592" type="line"/>
      <point x="1062" y="592" type="line"/>
      <point x="1062" y="776" type="line"/>
      <point x="728" y="776" type="line"/>
      <point x="728" y="1095" type="line"/>
      <point x="517" y="1095" type="line"/>
      <point x="517" y="776" type="line"/>
      <point x="192" y="776" type="line"/>
      <point x="192" y="592" type="line"/>
      <point x="521" y="592" type="line"/>
    </contour>
    <contour>
      <point x="188" y="0" type="line"/>
      <point x="1072" y="0" type="line"/>
      <point x="1072" y="160" type="line"/>
      <point x="188" y="160" type="line"/>
    </contour>
  </outline>
</glyph>
<glyph name="onehalf" format="1">
  <advance width="2390"/>
  <unicode hex="00BD"/>
  <outline>
    <contour>
      <point x="1473" y="0" type="line"/>
      <point x="2051" y="0" type="line"/>
      <point x="2051" y="161" type="line"/>
      <point x="1723" y="161" type="line"/>
      <point x="1846" y="263" type="line" smooth="yes"/>
      <point x="1973" y="367"/>
      <point x="2067" y="456"/>
      <point x="2061" y="597" type="curve" smooth="yes"/>
      <point x="2054" y="767"/>
      <point x="1930" y="847"/>
      <point x="1773" y="847" type="curve" smooth="yes"/>
      <point x="1666" y="847"/>
      <point x="1552" y="808"/>
      <point x="1465" y="738" type="curve"/>
      <point x="1533" y="602" type="line"/>
      <point x="1602" y="654"/>
      <point x="1690" y="691"/>
      <point x="1762" y="691" type="curve" smooth="yes"/>
      <point x="1830" y="691"/>
      <point x="1870" y="660"/>
      <point x="1877" y="595" type="curve" smooth="yes"/>
      <point x="1884" y="524"/>
      <point x="1858" y="480"/>
      <point x="1743" y="383" type="curve" smooth="yes"/>
      <point x="1473" y="153" type="line"/>
    </contour>
    <contour>
      <point x="564" y="0" type="line"/>
      <point x="760" y="0" type="line"/>
      <point x="1650" y="1456" type="line"/>
      <point x="1455" y="1456" type="line"/>
    </contour>
    <contour>
      <point x="216" y="623" type="line"/>
      <point x="745" y="623" type="line"/>
      <point x="745" y="764" type="line"/>
      <point x="579" y="764" type="line"/>
      <point x="579" y="1456" type="line"/>
      <point x="437" y="1456" type="line"/>
      <point x="429" y="1451"/>
      <point x="211" y="1378"/>
      <point x="199" y="1375" type="curve"/>
      <point x="199" y="1226" type="line"/>
      <point x="403" y="1283" type="line"/>
      <point x="403" y="766" type="line"/>
      <point x="216" y="766" type="line"/>
    </contour>
  </outline>
</glyph>
<glyph name="germandbls" format="1">
  <advance width="1259"/>
  <unicode hex="00DF"/>
  <outline>
    <contour>
      <point x="820" y="-22" type="curve" smooth="yes"/>
      <point x="1021" y="-22"/>
      <point x="1190" y="121"/>
      <point x="1190" y="350" type="curve" smooth="yes"/>
      <point x="1190" y="579"/>
      <point x="1021" y="715"/>
      <point x="826" y="789" type="curve"/>
      <point x="797" y="799"/>
      <point x="761" y="810"/>
      <point x="732" y="817" type="curve"/>
      <point x="760" y="826"/>
      <point x="794" y="839"/>
      <point x="819" y="852" type="curve"/>
      <point x="959" y="921"/>
      <point x="1031" y="1036"/>
      <point x="1031" y="1169" type="curve" smooth="yes"/>
      <point x="1031" y="1358"/>
      <point x="861" y="1488"/>
      <point x="605" y="1488" type="curve" smooth="yes"/>
      <point x="328" y="1488"/>
      <point x="151" y="1327"/>
      <point x="152" y="1010" type="curve" smooth="yes"/>
      <point x="155" y="0" type="line"/>
      <point x="373" y="0" type="line"/>
      <point x="373" y="1011" type="line" smooth="yes"/>
      <point x="373" y="1197"/>
      <point x="459" y="1310"/>
      <point x="606" y="1310" type="curve" smooth="yes"/>
      <point x="711" y="1310"/>
      <point x="792" y="1253"/>
      <point x="792" y="1158" type="curve" smooth="yes"/>
      <point x="792" y="1041"/>
      <point x="702" y="951"/>
      <point x="565" y="893" type="curve"/>
      <point x="565" y="725" type="line"/>
      <point x="820" y="604"/>
      <point x="946" y="500"/>
      <point x="946" y="333" type="curve" smooth="yes"/>
      <point x="946" y="222"/>
      <point x="883" y="168"/>
      <point x="799" y="158" type="curve" smooth="yes"/>
      <point x="680" y="143"/>
      <point x="532" y="212"/>
      <point x="532" y="212" type="curve"/>
      <point x="494" y="37" type="line"/>
      <point x="494" y="37"/>
      <point x="640" y="-22"/>
    </contour>
  </outline>
</glyph>
<glyph name="OE" format="1">
  <advance width="2053"/>
  <unicode hex="0152"/>
  <outline>
    <contour>
      <point x="814" y="-24" type="curve" smooth="yes"/>
      <point x="982" y="-19"/>
      <point x="1085" y="58"/>
      <point x="1100" y="75" type="curve"/>
      <point x="1100" y="0" type="line"/>
      <point x="1956" y="0" type="line"/>
      <point x="1956" y="197" type="line"/>
      <point x="1332" y="197" type="line"/>
      <point x="1332" y="646" type="line"/>
      <point x="1889" y="646" type="line"/>
      <point x="1889" y="844" type="line"/>
      <point x="1331" y="844" type="line"/>
      <point x="1331" y="1259" type="line"/>
      <point x="1926" y="1259" type="line"/>
      <point x="1926" y="1456" type="line"/>
      <point x="1100" y="1456" type="line"/>
      <point x="1100" y="1394" type="line"/>
      <point x="1090" y="1403"/>
      <point x="999" y="1488"/>
      <point x="777" y="1482" type="curve" smooth="yes"/>
      <point x="399" y="1474"/>
      <point x="106" y="1189"/>
      <point x="106" y="731" type="curve" smooth="yes"/>
      <point x="106" y="220"/>
      <point x="412" y="-36"/>
    </contour>
    <contour>
      <point x="818" y="160" type="curve" smooth="yes"/>
      <point x="531" y="159"/>
      <point x="354" y="370"/>
      <point x="354" y="725" type="curve" smooth="yes"/>
      <point x="354" y="1091"/>
      <point x="549" y="1270"/>
      <point x="790" y="1285" type="curve" smooth="yes"/>
      <point x="957" y="1297"/>
      <point x="1050" y="1244"/>
      <point x="1100" y="1199" type="curve"/>
      <point x="1100" y="255" type="line"/>
      <point x="1087" y="241"/>
      <point x="1011" y="161"/>
    </contour>
  </outline>
</glyph>
<glyph name="breve" format="1">
  <advance width="668"/>
  <unicode hex="02D8"/>
  <outline>
    <contour>
      <point x="340" y="1026" type="move" name="_top"/>
    </contour>
    <contour>
      <point x="336" y="1174" type="curve" smooth="yes"/>
      <point x="517" y="1174"/>
      <point x="624" y="1257"/>
      <point x="637" y="1456" type="curve"/>
      <point x="482" y="1456" type="line"/>
      <point x="472" y="1353"/>
      <point x="410" y="1332"/>
      <point x="336" y="1332" type="curve" smooth="yes"/>
      <point x="261" y="1332"/>
      <point x="196" y="1353"/>
      <point x="188" y="1456" type="curve"/>
      <point x="30" y="1456" type="line"/>
      <point x="44" y="1257"/>
      <point x="154" y="1174"/>
    </contour>
  </outline>
</glyph>
<glyph name="quotedblright" format="1">
  <advance width="1024"/>
  <unicode hex="201D"/>
  <outline>
    <contour>
      <point x="186" y="871" type="line"/>
      <point x="377" y="871" type="line"/>
      <point x="542" y="1456" type="line"/>
      <point x="294" y="1456" type="line"/>
    </contour>
    <contour>
      <point x="576" y="871" type="line"/>
      <point x="767" y="871" type="line"/>
      <point x="932" y="1456" type="line"/>
      <point x="686" y="1456" type="line"/>
    </contour>
  </outline>
</glyph>
<glyph name="guilsinglright" format="1">
  <advance width="709"/>
  <unicode hex="203A"/>
  <outline>
    <contour>
      <point x="117" y="161" type="line"/>
      <point x="303" y="161" type="line"/>
      <point x="583" y="540" type="line"/>
      <point x="309" y="919" type="line"/>
      <point x="125" y="919" type="line"/>
      <point x="359" y="541" type="line"/>
    </contour>
  </outline>
</glyph>
<glyph name="Euro" format="1">
  <advance width="1492"/>
  <unicode hex="20AC"/>
  <outline>
    <contour>
      <point x="90" y="512" type="line"/>
      <point x="965" y="512" type="line"/>
      <point x="972" y="624" type="line"/>
      <point x="381" y="624" type="line"/>
      <point x="379" y="832" type="line"/>
      <point x="1001" y="832" type="line"/>
      <point x="1008" y="950" type="line"/>
      <point x="94" y="950" type="line"/>
      <point x="89" y="832" type="line"/>
      <point x="344" y="832" type="line"/>
      <point x="347" y="624" type="line"/>
      <point x="95" y="624" type="line"/>
    </contour>
    <component base="C" xOffset="145"/>
  </outline>
</glyph>
<glyph name="radical" format="1">
  <advance width="1314"/>
  <unicode hex="221A"/>
  <outline>
    <contour>
      <point x="607" y="-146" type="line"/>
      <point x="792" y="-146" type="line"/>
      <point x="1248" y="1566" type="line"/>
      <point x="1048" y="1566" type="line"/>
      <point x="680" y="199" type="line"/>
      <point x="441" y="839" type="line"/>
      <point x="93" y="781" type="line"/>
      <point x="130" y="621" type="line"/>
      <point x="130" y="621"/>
      <point x="291" y="650"/>
      <point x="294" y="651" type="curve"/>
    </contour>
  </outline>
</glyph>
<glyph name="integral" format="1">
  <advance width="792"/>
  <unicode hex="222B"/>
  <outline>
    <contour>
      <point x="199" y="-316" type="curve" smooth="yes"/>
      <point x="430" y="-316"/>
      <point x="514" y="-155"/>
      <point x="514" y="65" type="curve" smooth="yes"/>
      <point x="514" y="1191" type="line" smooth="yes"/>
      <point x="514" y="1309"/>
      <point x="536" y="1371"/>
      <point x="639" y="1371" type="curve" smooth="yes"/>
      <point x="696" y="1371"/>
      <point x="766" y="1351"/>
      <point x="766" y="1351" type="curve"/>
      <point x="766" y="1528" type="line"/>
      <point x="766" y="1528"/>
      <point x="695" y="1552"/>
      <point x="604" y="1552" type="curve" smooth="yes"/>
      <point x="375" y="1552"/>
      <point x="297" y="1389"/>
      <point x="297" y="1170" type="curve" smooth="yes"/>
      <point x="297" y="44" type="line" smooth="yes"/>
      <point x="297" y="-73"/>
      <point x="279" y="-137"/>
      <point x="179" y="-137" type="curve" smooth="yes"/>
      <point x="121" y="-137"/>
      <point x="38" y="-121"/>
      <point x="38" y="-121" type="curve"/>
      <point x="38" y="-292" type="line"/>
      <point x="38" y="-292"/>
      <point x="99" y="-316"/>
    </contour>
  </outline>
</glyph>
<glyph name="lessequal" format="1">
  <advance width="1351"/>
  <unicode hex="2264"/>
  <outline>
    <contour>
      <point x="1141" y="244" type="line"/>
      <point x="1141" y="446" type="line"/>
      <point x="428" y="768" type="line"/>
      <point x="1145" y="1088" type="line"/>
      <point x="1145" y="1294" type="line"/>
      <point x="136" y="822" type="line"/>
      <point x="136" y="714" type="line"/>
    </contour>
    <contour>
      <point x="127" y="0" type="line"/>
      <point x="1160" y="0" type="line"/>
      <point x="1160" y="163" type="line"/>
      <point x="127" y="163" type="line"/>
    </contour>
  </outline>
</glyph>
